<svg width="141.797" height="39.199" viewBox="0 0 141.797 39.199" xmlns="http://www.w3.org/2000/svg"><g id="svgGroup" stroke-linecap="round" fill-rule="evenodd" font-size="9pt" stroke="#000" stroke-width="0.05mm" fill="#ffffff" style="stroke:#000;stroke-width:0.05mm;fill:#000"><path d="M 16.328 2.715 L 16.328 26.641 A 4.518 4.518 0 0 1 16.262 27.442 Q 16.1 28.342 15.537 28.828 Q 14.746 29.512 13.125 29.512 Q 11.484 29.512 10.703 28.828 Q 10.068 28.273 9.949 27.176 A 4.966 4.966 0 0 1 9.922 26.641 L 9.922 3.125 Q 9.922 2.84 9.879 2.632 A 1.222 1.222 0 0 0 9.824 2.441 A 1.118 1.118 0 0 0 9.718 2.23 A 0.849 0.849 0 0 0 9.551 2.041 A 0.909 0.909 0 0 0 9.198 1.861 A 1.092 1.092 0 0 0 9.131 1.846 A 2.465 2.465 0 0 0 8.841 1.806 A 3.152 3.152 0 0 0 8.594 1.797 A 3.486 3.486 0 0 0 8.251 1.815 Q 8.071 1.833 7.865 1.868 A 8.02 8.02 0 0 0 7.529 1.934 Q 6.895 2.07 6.192 2.344 A 10.892 10.892 0 0 0 5.042 2.872 A 12.323 12.323 0 0 0 4.775 3.018 A 7.067 7.067 0 0 0 3.794 3.679 A 6.291 6.291 0 0 0 3.506 3.926 A 4.546 4.546 0 0 0 2.598 5.059 A 2.704 2.704 0 0 0 2.246 6.406 Q 2.246 7.031 2.412 7.402 A 2.268 2.268 0 0 0 2.532 7.636 Q 2.601 7.752 2.678 7.842 A 1.067 1.067 0 0 0 2.793 7.959 Q 3.008 8.145 3.233 8.193 A 4.052 4.052 0 0 0 3.337 8.215 Q 3.431 8.233 3.495 8.239 A 0.625 0.625 0 0 0 3.555 8.242 Q 3.926 8.242 4.195 8.146 A 1.193 1.193 0 0 0 4.356 8.076 A 4.975 4.975 0 0 0 4.74 7.85 A 4.169 4.169 0 0 0 4.922 7.725 A 119.816 119.816 0 0 0 5.169 7.544 A 100.298 100.298 0 0 0 5.4 7.373 A 0.848 0.848 0 0 1 5.918 7.207 A 1.164 1.164 0 0 1 6.191 7.241 A 1.575 1.575 0 0 1 6.416 7.314 A 1.333 1.333 0 0 1 6.76 7.522 A 1.661 1.661 0 0 1 6.904 7.656 Q 7.129 7.891 7.285 8.272 Q 7.442 8.652 7.442 9.199 A 3.393 3.393 0 0 1 7.384 9.842 A 2.483 2.483 0 0 1 7.139 10.547 Q 6.836 11.113 6.358 11.494 A 3.239 3.239 0 0 1 5.264 12.061 A 4.244 4.244 0 0 1 4.157 12.245 A 3.962 3.962 0 0 1 4.043 12.246 A 4.695 4.695 0 0 1 3.073 12.15 A 3.824 3.824 0 0 1 2.354 11.924 A 3.761 3.761 0 0 1 1.192 11.156 A 3.605 3.605 0 0 1 1.074 11.035 A 3.818 3.818 0 0 1 0.274 9.707 A 4.739 4.739 0 0 1 0.001 8.166 A 5.359 5.359 0 0 1 0 8.086 A 6.477 6.477 0 0 1 0.2 6.451 A 5.67 5.67 0 0 1 0.488 5.615 Q 0.977 4.492 1.826 3.594 A 8.917 8.917 0 0 1 3.537 2.193 A 10.086 10.086 0 0 1 3.818 2.022 A 13.091 13.091 0 0 1 6.206 0.927 A 14.4 14.4 0 0 1 6.289 0.898 A 16.591 16.591 0 0 1 9.063 0.225 Q 10.508 0 11.953 0 Q 13.555 0 14.443 0.303 A 5.292 5.292 0 0 1 14.953 0.504 Q 15.204 0.62 15.402 0.751 A 2.123 2.123 0 0 1 15.752 1.035 A 2.183 2.183 0 0 1 16.026 1.373 Q 16.175 1.604 16.232 1.844 A 1.324 1.324 0 0 1 16.25 1.934 Q 16.328 2.402 16.328 2.715 Z" id="0"/><path d="M 27.949 14.395 L 27.949 27.441 Q 27.949 27.631 27.906 27.88 A 4.483 4.483 0 0 1 27.871 28.057 A 1.306 1.306 0 0 1 27.686 28.493 A 1.764 1.764 0 0 1 27.49 28.74 Q 27.256 28.989 26.848 29.18 A 3.658 3.658 0 0 1 26.592 29.287 A 2.906 2.906 0 0 1 26.13 29.415 Q 25.648 29.51 24.982 29.512 A 9.486 9.486 0 0 1 24.961 29.512 A 7.156 7.156 0 0 1 24.357 29.488 Q 23.76 29.437 23.358 29.279 A 2.147 2.147 0 0 1 23.33 29.268 Q 22.884 29.085 22.596 28.852 A 1.748 1.748 0 0 1 22.422 28.691 A 1.871 1.871 0 0 1 22.208 28.42 Q 22.095 28.244 22.045 28.063 A 1.126 1.126 0 0 1 22.031 28.008 A 4.544 4.544 0 0 1 21.99 27.801 Q 21.956 27.603 21.953 27.461 A 1.234 1.234 0 0 1 21.953 27.441 L 21.953 12.363 A 2.05 2.05 0 0 0 21.889 11.841 A 1.66 1.66 0 0 0 21.69 11.377 A 0.856 0.856 0 0 0 21.142 10.995 Q 20.99 10.958 20.807 10.957 A 1.844 1.844 0 0 0 20.801 10.957 A 1.579 1.579 0 0 0 20.547 10.976 Q 20.401 11 20.279 11.054 A 0.943 0.943 0 0 0 20.234 11.074 A 2.388 2.388 0 0 0 20.022 11.195 Q 19.88 11.285 19.727 11.406 L 19.317 10.918 A 10.111 10.111 0 0 1 19.92 10.458 A 12.289 12.289 0 0 1 20.322 10.186 Q 20.879 9.824 21.524 9.551 Q 22.168 9.277 22.91 9.102 A 6.662 6.662 0 0 1 24.263 8.929 A 7.519 7.519 0 0 1 24.473 8.926 Q 25.742 8.926 26.445 9.346 A 3.373 3.373 0 0 1 26.99 9.745 A 2.464 2.464 0 0 1 27.481 10.352 A 3.151 3.151 0 0 1 27.871 11.493 A 3.041 3.041 0 0 1 27.881 11.572 Q 27.93 12.031 27.944 12.383 A 6.543 6.543 0 0 1 27.949 12.637 Q 28.672 11.602 29.59 10.781 A 7.806 7.806 0 0 1 30.169 10.286 A 9.117 9.117 0 0 1 30.42 10.098 A 7.373 7.373 0 0 1 31.397 9.502 A 5.674 5.674 0 0 1 32.49 9.082 Q 33.067 8.926 33.672 8.926 A 5.929 5.929 0 0 1 34.924 9.053 A 4.707 4.707 0 0 1 36.025 9.434 Q 37.051 9.941 37.754 11.133 A 7.032 7.032 0 0 1 38.262 12.205 Q 38.475 12.765 38.642 13.432 A 15.065 15.065 0 0 1 38.828 14.287 Q 39.199 16.25 39.199 19.16 Q 39.199 21.583 38.828 23.462 A 14.7 14.7 0 0 1 38.692 24.082 Q 38.228 25.988 37.505 27.374 A 10.06 10.06 0 0 1 37.363 27.637 A 10.717 10.717 0 0 1 36.504 28.949 A 8.036 8.036 0 0 1 35.508 30.029 A 10.773 10.773 0 0 1 34.403 30.902 A 8.404 8.404 0 0 1 33.418 31.484 A 9.71 9.71 0 0 1 32.385 31.931 A 7.433 7.433 0 0 1 31.397 32.217 A 12.954 12.954 0 0 1 30.709 32.345 Q 30.37 32.397 30.071 32.422 A 6.34 6.34 0 0 1 29.727 32.441 L 29.512 31.641 A 3.849 3.849 0 0 0 30.596 31.211 A 2.697 2.697 0 0 0 31.142 30.781 A 3.64 3.64 0 0 0 31.504 30.352 A 4.594 4.594 0 0 0 31.856 29.776 Q 32.056 29.391 32.227 28.916 Q 32.463 28.259 32.649 27.351 A 19.474 19.474 0 0 0 32.764 26.738 A 21.612 21.612 0 0 0 32.916 25.69 Q 32.986 25.108 33.039 24.454 A 40.057 40.057 0 0 0 33.096 23.643 Q 33.203 21.856 33.203 19.473 A 44.386 44.386 0 0 0 33.181 18.031 Q 33.133 16.551 32.979 15.537 A 14.336 14.336 0 0 0 32.828 14.704 Q 32.641 13.827 32.383 13.291 Q 32.012 12.52 31.563 12.275 Q 31.113 12.031 30.645 12.031 A 1.8 1.8 0 0 0 29.979 12.153 A 1.69 1.69 0 0 0 29.639 12.334 A 3.704 3.704 0 0 0 28.877 13.027 A 6.044 6.044 0 0 0 28.496 13.54 A 5.077 5.077 0 0 0 28.33 13.809 Q 28.145 14.131 28.006 14.32 A 2.224 2.224 0 0 1 27.949 14.395 Z" id="1"/><path d="M 41.192 25.879 L 41.875 25.391 A 5.169 5.169 0 0 0 42.119 25.651 Q 42.297 25.83 42.52 26.025 A 6.215 6.215 0 0 0 43.212 26.549 A 7.018 7.018 0 0 0 43.389 26.66 Q 43.867 26.953 44.414 27.139 A 3.443 3.443 0 0 0 45.527 27.324 Q 46.934 27.324 47.832 26.65 A 2.179 2.179 0 0 0 48.681 25.235 A 3.324 3.324 0 0 0 48.731 24.648 A 2.52 2.52 0 0 0 48.576 23.798 Q 48.456 23.461 48.242 23.115 A 10.549 10.549 0 0 0 47.652 22.261 A 13.974 13.974 0 0 0 47.012 21.484 A 57.21 57.21 0 0 0 45.936 20.302 A 66.765 66.765 0 0 0 45.41 19.746 A 23.668 23.668 0 0 1 43.809 17.891 A 11.217 11.217 0 0 1 42.77 16.297 A 10.142 10.142 0 0 1 42.578 15.918 A 4.813 4.813 0 0 1 42.09 13.809 A 5.146 5.146 0 0 1 42.199 12.724 A 3.969 3.969 0 0 1 42.588 11.66 A 4.539 4.539 0 0 1 43.916 10.137 A 5.851 5.851 0 0 1 45.548 9.309 A 6.734 6.734 0 0 1 45.811 9.229 Q 46.875 8.926 48.008 8.926 A 12.674 12.674 0 0 1 49.332 8.992 A 9.749 9.749 0 0 1 50.391 9.16 Q 51.465 9.395 52.236 9.873 A 3.619 3.619 0 0 1 53.081 10.586 A 3.251 3.251 0 0 1 53.428 11.074 A 3.092 3.092 0 0 1 53.815 12.234 A 3.954 3.954 0 0 1 53.848 12.754 Q 53.848 13.496 53.359 14.043 A 1.594 1.594 0 0 1 52.456 14.547 A 2.362 2.362 0 0 1 51.992 14.59 Q 51.152 14.59 50.713 14.229 A 1.18 1.18 0 0 1 50.279 13.376 A 1.662 1.662 0 0 1 50.274 13.242 Q 50.274 12.92 50.4 12.707 A 0.727 0.727 0 0 1 50.479 12.598 A 1.831 1.831 0 0 1 50.875 12.255 A 1.712 1.712 0 0 1 50.938 12.217 Q 51.192 12.07 51.397 11.963 A 0.534 0.534 0 0 0 51.491 11.901 Q 51.544 11.857 51.572 11.803 A 0.264 0.264 0 0 0 51.602 11.68 Q 51.602 11.133 51.016 10.811 A 2.393 2.393 0 0 0 50.417 10.585 Q 50.014 10.488 49.512 10.488 A 3.078 3.078 0 0 0 48.827 10.563 A 2.791 2.791 0 0 0 48.662 10.606 Q 48.262 10.723 47.949 10.986 A 1.783 1.783 0 0 0 47.489 11.589 A 2.084 2.084 0 0 0 47.461 11.65 Q 47.29 12.039 47.285 12.566 A 3.365 3.365 0 0 0 47.285 12.598 A 2.245 2.245 0 0 0 47.497 13.534 A 3.198 3.198 0 0 0 47.842 14.111 A 11.184 11.184 0 0 0 48.467 14.878 Q 48.803 15.256 49.203 15.649 A 18.126 18.126 0 0 0 49.229 15.674 Q 50.059 16.484 51.025 17.354 A 19.896 19.896 0 0 1 52.822 19.189 A 10.396 10.396 0 0 1 54.209 21.25 Q 54.766 22.344 54.766 23.594 A 7.059 7.059 0 0 1 54.646 24.922 A 5.487 5.487 0 0 1 54.287 26.094 A 5.104 5.104 0 0 1 52.92 27.949 A 5.777 5.777 0 0 1 51.451 28.858 A 7.1 7.1 0 0 1 50.772 29.111 Q 49.512 29.512 47.969 29.512 A 8.262 8.262 0 0 1 46.609 29.404 A 6.569 6.569 0 0 1 45.527 29.131 A 9.578 9.578 0 0 1 44.315 28.617 A 7.873 7.873 0 0 1 43.584 28.193 A 9.422 9.422 0 0 1 42.706 27.546 A 7.468 7.468 0 0 1 42.129 27.012 A 10.985 10.985 0 0 1 41.713 26.559 Q 41.519 26.335 41.366 26.129 A 5.162 5.162 0 0 1 41.192 25.879 Z" id="2"/><path d="M 67.363 10.606 L 64.336 10.606 L 64.336 25.039 A 4.332 4.332 0 0 0 64.36 25.517 Q 64.434 26.174 64.727 26.475 A 1.29 1.29 0 0 0 65.393 26.834 A 1.918 1.918 0 0 0 65.801 26.875 Q 66.328 26.875 66.738 26.582 A 3.464 3.464 0 0 0 67.364 26.012 A 3.201 3.201 0 0 0 67.442 25.918 A 3.947 3.947 0 0 0 67.896 25.258 A 4.702 4.702 0 0 0 68.047 24.961 L 68.652 25.234 A 23.534 23.534 0 0 1 68.333 25.889 A 31.766 31.766 0 0 1 67.959 26.602 A 5.415 5.415 0 0 1 67.134 27.737 A 6.274 6.274 0 0 1 66.895 27.979 A 4.974 4.974 0 0 1 65.986 28.66 A 6.53 6.53 0 0 1 65.225 29.043 A 4.862 4.862 0 0 1 64.265 29.333 Q 63.564 29.473 62.695 29.473 Q 61.836 29.473 61.045 29.219 A 3.876 3.876 0 0 1 59.639 28.418 A 3.912 3.912 0 0 1 58.787 27.325 A 4.643 4.643 0 0 1 58.652 27.051 A 3.961 3.961 0 0 1 58.374 26.147 Q 58.281 25.654 58.281 25.078 L 58.281 10.606 L 56.094 10.606 L 56.094 9.199 Q 56.641 9.199 57.617 8.916 Q 58.594 8.633 59.619 7.969 A 7.32 7.32 0 0 0 60.844 6.963 A 9.249 9.249 0 0 0 61.524 6.191 A 6.163 6.163 0 0 0 62.419 4.605 A 8.121 8.121 0 0 0 62.774 3.438 L 64.336 3.438 L 64.336 9.199 L 67.52 9.199 A 7.069 7.069 0 0 0 68.011 9.184 Q 69.082 9.109 69.082 8.672 A 0.297 0.297 0 0 0 69.062 8.56 Q 69.02 8.455 68.887 8.408 A 4.95 4.95 0 0 1 68.707 8.341 Q 68.585 8.293 68.447 8.232 Q 68.203 8.125 68.008 7.93 Q 67.813 7.734 67.813 7.285 Q 67.813 6.738 68.154 6.426 A 1.172 1.172 0 0 1 68.752 6.138 A 1.647 1.647 0 0 1 69.043 6.113 A 1.427 1.427 0 0 1 69.363 6.148 A 1.121 1.121 0 0 1 69.658 6.26 A 1.332 1.332 0 0 1 70.098 6.65 A 1.73 1.73 0 0 1 70.337 7.128 A 1.995 1.995 0 0 1 70.361 7.207 Q 70.449 7.52 70.449 7.832 A 3.563 3.563 0 0 1 70.351 8.695 A 2.489 2.489 0 0 1 69.717 9.854 A 2.192 2.192 0 0 1 68.906 10.368 Q 68.275 10.606 67.363 10.606 Z" id="3"/><path d="M 86.289 14.844 L 86.289 25.879 A 3.723 3.723 0 0 0 86.294 26.064 A 5.06 5.06 0 0 0 86.309 26.27 A 1.315 1.315 0 0 0 86.356 26.523 A 1.112 1.112 0 0 0 86.406 26.66 A 0.733 0.733 0 0 0 86.641 26.953 A 0.519 0.519 0 0 0 86.797 27.031 Q 86.868 27.054 86.955 27.063 A 1.234 1.234 0 0 0 87.09 27.07 A 0.93 0.93 0 0 0 87.609 26.909 A 1.255 1.255 0 0 0 87.744 26.807 A 5.499 5.499 0 0 0 88.128 26.44 A 4.676 4.676 0 0 0 88.281 26.27 L 88.77 26.68 Q 88.477 27.09 88.067 27.578 Q 87.656 28.066 87.07 28.496 Q 86.484 28.926 85.703 29.219 A 4.513 4.513 0 0 1 84.714 29.462 A 5.946 5.946 0 0 1 83.926 29.512 Q 82.695 29.512 81.738 28.779 Q 80.781 28.047 80.488 26.523 A 9.378 9.378 0 0 1 79.811 27.339 A 7.221 7.221 0 0 1 79.19 27.93 A 7.47 7.47 0 0 1 78.293 28.581 A 6.323 6.323 0 0 1 77.813 28.848 A 6.195 6.195 0 0 1 76.666 29.289 A 5.599 5.599 0 0 1 76.397 29.356 Q 75.684 29.512 74.961 29.512 A 5.706 5.706 0 0 1 73.145 29.219 Q 72.266 28.926 71.572 28.291 A 4.191 4.191 0 0 1 70.788 27.308 A 5.414 5.414 0 0 1 70.459 26.641 A 5.148 5.148 0 0 1 70.161 25.609 Q 70.07 25.115 70.047 24.547 A 9.605 9.605 0 0 1 70.039 24.16 Q 70.039 22.383 70.742 21.25 Q 71.445 20.117 72.588 19.346 Q 73.731 18.574 75.186 18.027 A 170.071 170.071 0 0 0 78.164 16.875 A 3.852 3.852 0 0 0 78.997 16.428 A 2.869 2.869 0 0 0 79.815 15.537 Q 80.332 14.648 80.332 13.711 A 3.99 3.99 0 0 0 80.213 12.708 A 2.87 2.87 0 0 0 79.483 11.397 A 2.817 2.817 0 0 0 77.986 10.604 A 4.129 4.129 0 0 0 77.168 10.527 A 4.953 4.953 0 0 0 76.378 10.588 A 4.133 4.133 0 0 0 75.938 10.684 A 5.055 5.055 0 0 0 75.441 10.847 Q 75.179 10.95 74.961 11.074 Q 74.551 11.309 74.317 11.592 A 1.341 1.341 0 0 0 74.193 11.766 Q 74.135 11.865 74.107 11.959 A 0.604 0.604 0 0 0 74.082 12.129 A 0.435 0.435 0 0 0 74.13 12.335 Q 74.202 12.472 74.385 12.549 A 26.722 26.722 0 0 1 74.705 12.686 A 36.799 36.799 0 0 1 75.059 12.842 Q 75.43 13.008 75.733 13.311 A 0.934 0.934 0 0 1 75.95 13.665 Q 76.035 13.906 76.035 14.238 A 1.763 1.763 0 0 1 75.957 14.77 A 1.605 1.605 0 0 1 75.869 14.99 A 2.038 2.038 0 0 1 75.42 15.596 A 2.032 2.032 0 0 1 74.768 16.001 A 2.308 2.308 0 0 1 74.756 16.006 A 2.185 2.185 0 0 1 73.965 16.152 A 2.617 2.617 0 0 1 73.131 16.025 A 2.176 2.176 0 0 1 72.197 15.41 Q 71.524 14.668 71.524 13.438 A 3.798 3.798 0 0 1 71.661 12.396 A 3.103 3.103 0 0 1 72.149 11.397 A 4.789 4.789 0 0 1 73.504 10.16 A 5.658 5.658 0 0 1 73.779 10 A 7.776 7.776 0 0 1 75.287 9.382 A 9.469 9.469 0 0 1 76.055 9.189 A 12.456 12.456 0 0 1 78.594 8.926 A 12.62 12.62 0 0 1 81.133 9.176 A 11.558 11.558 0 0 1 81.504 9.258 A 7.819 7.819 0 0 1 83.148 9.844 A 6.754 6.754 0 0 1 83.955 10.313 Q 85.02 11.035 85.654 12.148 Q 86.28 13.247 86.289 14.801 A 7.828 7.828 0 0 1 86.289 14.844 Z M 80.274 23.848 L 80.274 19.082 A 1.213 1.213 0 0 0 80.238 18.78 A 0.81 0.81 0 0 0 79.961 18.34 A 1.108 1.108 0 0 0 79.477 18.116 A 1.573 1.573 0 0 0 79.16 18.086 Q 78.477 18.086 77.861 18.398 A 3.093 3.093 0 0 0 76.99 19.066 A 3.748 3.748 0 0 0 76.777 19.316 A 4.095 4.095 0 0 0 76.312 20.087 A 5.528 5.528 0 0 0 76.035 20.811 A 5.901 5.901 0 0 0 75.83 21.77 Q 75.77 22.221 75.763 22.726 A 9.821 9.821 0 0 0 75.762 22.871 Q 75.762 23.686 75.848 24.299 A 5.64 5.64 0 0 0 75.928 24.746 A 5.275 5.275 0 0 0 76.062 25.24 Q 76.196 25.646 76.377 25.928 A 2.087 2.087 0 0 0 76.612 26.231 Q 76.772 26.401 76.955 26.503 A 1.24 1.24 0 0 0 77.031 26.543 A 1.803 1.803 0 0 0 77.813 26.719 A 1.86 1.86 0 0 0 78.77 26.455 Q 79.219 26.191 79.551 25.781 Q 79.883 25.371 80.078 24.863 A 2.875 2.875 0 0 0 80.264 24.07 A 2.649 2.649 0 0 0 80.274 23.848 Z" id="4"/><path d="M 91.641 37.129 L 91.641 12.363 A 2.05 2.05 0 0 0 91.577 11.841 A 1.66 1.66 0 0 0 91.377 11.377 A 0.856 0.856 0 0 0 90.83 10.995 Q 90.678 10.958 90.494 10.957 A 1.844 1.844 0 0 0 90.488 10.957 A 1.579 1.579 0 0 0 90.235 10.976 Q 90.088 11 89.966 11.054 A 0.943 0.943 0 0 0 89.922 11.074 A 2.388 2.388 0 0 0 89.709 11.195 Q 89.568 11.285 89.414 11.406 L 89.004 10.918 A 10.111 10.111 0 0 1 89.607 10.458 A 12.289 12.289 0 0 1 90.01 10.186 Q 90.567 9.824 91.211 9.551 Q 91.856 9.277 92.598 9.102 A 6.662 6.662 0 0 1 93.95 8.929 A 7.519 7.519 0 0 1 94.16 8.926 A 4.747 4.747 0 0 1 94.832 8.971 Q 95.2 9.024 95.51 9.137 A 2.734 2.734 0 0 1 95.664 9.199 A 4.411 4.411 0 0 1 96.238 9.5 A 3.328 3.328 0 0 1 96.709 9.854 A 3.29 3.29 0 0 1 97.073 10.238 A 2.483 2.483 0 0 1 97.344 10.654 Q 97.483 10.925 97.548 11.144 A 1.452 1.452 0 0 1 97.598 11.366 A 5.353 5.353 0 0 1 98.525 10.371 Q 99.063 9.922 99.697 9.6 A 6.295 6.295 0 0 1 101.045 9.102 A 6.137 6.137 0 0 1 102.52 8.926 Q 104.082 8.926 105.352 9.57 A 5.864 5.864 0 0 1 107.207 11.066 A 7.069 7.069 0 0 1 107.529 11.484 A 8.123 8.123 0 0 1 108.376 13.004 Q 108.687 13.727 108.911 14.574 A 13.326 13.326 0 0 1 108.926 14.629 A 14.356 14.356 0 0 1 109.284 16.583 Q 109.398 17.557 109.412 18.65 A 24.241 24.241 0 0 1 109.414 18.965 A 23.027 23.027 0 0 1 109.33 20.984 Q 109.239 22.023 109.047 22.919 A 11.861 11.861 0 0 1 108.818 23.818 Q 108.311 25.523 107.535 26.697 A 7.255 7.255 0 0 1 107.256 27.09 A 6.769 6.769 0 0 1 106.238 28.172 A 5.32 5.32 0 0 1 105.049 28.936 A 6.039 6.039 0 0 1 103.001 29.491 A 5.724 5.724 0 0 1 102.52 29.512 A 9.131 9.131 0 0 1 101.63 29.471 Q 101.091 29.418 100.635 29.297 A 7.952 7.952 0 0 1 99.969 29.09 Q 99.568 28.945 99.238 28.77 Q 98.652 28.457 98.262 28.135 A 26.806 26.806 0 0 1 98.076 27.98 Q 97.85 27.79 97.688 27.644 A 8.395 8.395 0 0 1 97.637 27.598 L 97.637 37.129 A 2.041 2.041 0 0 1 97.626 37.333 Q 97.608 37.515 97.559 37.734 A 1.275 1.275 0 0 1 97.39 38.136 A 1.781 1.781 0 0 1 97.178 38.408 A 1.754 1.754 0 0 1 96.884 38.656 Q 96.633 38.826 96.279 38.965 A 2.812 2.812 0 0 1 95.818 39.098 Q 95.336 39.198 94.67 39.199 A 9.175 9.175 0 0 1 94.649 39.199 A 7.156 7.156 0 0 1 94.044 39.175 Q 93.448 39.125 93.045 38.966 A 2.147 2.147 0 0 1 93.018 38.955 Q 92.422 38.711 92.109 38.369 Q 91.852 38.088 91.754 37.806 A 1.125 1.125 0 0 1 91.719 37.686 A 4.225 4.225 0 0 1 91.678 37.484 Q 91.643 37.29 91.641 37.149 A 1.231 1.231 0 0 1 91.641 37.129 Z M 97.637 13.926 L 97.637 24.805 Q 97.637 24.95 97.754 25.296 A 6.187 6.187 0 0 0 97.774 25.352 Q 97.91 25.742 98.203 26.152 A 2.976 2.976 0 0 0 98.736 26.718 A 3.558 3.558 0 0 0 98.955 26.885 A 1.748 1.748 0 0 0 99.665 27.172 A 2.37 2.37 0 0 0 100.078 27.207 A 1.911 1.911 0 0 0 101.486 26.613 A 2.46 2.46 0 0 0 101.543 26.553 A 3.973 3.973 0 0 0 102.06 25.843 Q 102.262 25.493 102.431 25.068 A 7.44 7.44 0 0 0 102.539 24.775 A 10.341 10.341 0 0 0 102.867 23.6 Q 103.015 22.929 103.106 22.158 A 25.563 25.563 0 0 0 103.257 20.21 A 30.689 30.689 0 0 0 103.281 18.965 A 32.522 32.522 0 0 0 103.25 17.488 Q 103.197 16.333 103.057 15.43 Q 102.897 14.401 102.633 13.655 A 5.466 5.466 0 0 0 102.402 13.096 Q 102.072 12.412 101.643 12.017 A 2.23 2.23 0 0 0 101.377 11.807 A 2.344 2.344 0 0 0 100.039 11.406 Q 99.609 11.406 99.18 11.65 Q 98.75 11.895 98.408 12.256 A 3.15 3.15 0 0 0 97.852 13.066 A 2.363 2.363 0 0 0 97.699 13.472 A 1.745 1.745 0 0 0 97.637 13.926 Z" id="5"/><path d="M 119.356 12.168 L 119.356 27.441 A 1.853 1.853 0 0 1 119.343 27.647 Q 119.323 27.831 119.268 28.057 A 1.29 1.29 0 0 1 119.081 28.472 A 1.801 1.801 0 0 1 118.858 28.74 Q 118.605 28.993 118.179 29.185 A 3.903 3.903 0 0 1 117.93 29.287 Q 117.327 29.511 116.3 29.512 A 9.359 9.359 0 0 1 116.289 29.512 Q 115.278 29.512 114.695 29.279 A 2.06 2.06 0 0 1 114.668 29.268 Q 114.244 29.091 113.974 28.869 A 1.606 1.606 0 0 1 113.789 28.691 A 1.8 1.8 0 0 1 113.582 28.408 A 1.277 1.277 0 0 1 113.428 28.009 A 5.124 5.124 0 0 1 113.392 27.801 Q 113.359 27.589 113.359 27.441 L 113.359 12.363 A 2.05 2.05 0 0 0 113.296 11.841 A 1.66 1.66 0 0 0 113.096 11.377 A 0.856 0.856 0 0 0 112.548 10.995 Q 112.396 10.958 112.213 10.957 A 1.844 1.844 0 0 0 112.207 10.957 A 1.579 1.579 0 0 0 111.953 10.976 Q 111.807 11 111.685 11.054 A 0.943 0.943 0 0 0 111.641 11.074 A 2.388 2.388 0 0 0 111.428 11.195 Q 111.287 11.285 111.133 11.406 L 110.723 10.918 A 10.111 10.111 0 0 1 111.326 10.458 A 12.289 12.289 0 0 1 111.729 10.186 Q 112.285 9.824 112.93 9.551 Q 113.574 9.277 114.317 9.102 A 6.662 6.662 0 0 1 115.669 8.929 A 7.519 7.519 0 0 1 115.879 8.926 Q 117.134 8.926 117.836 9.26 A 2.221 2.221 0 0 1 117.852 9.268 A 3.347 3.347 0 0 1 118.327 9.546 Q 118.679 9.796 118.887 10.107 A 2.421 2.421 0 0 1 119.287 11.172 A 10.933 10.933 0 0 1 119.329 11.577 Q 119.347 11.799 119.353 11.995 A 5.922 5.922 0 0 1 119.356 12.168 Z M 112.998 3.428 A 2.345 2.345 0 0 0 112.754 4.473 Q 112.754 5.039 112.998 5.527 Q 113.242 6.016 113.682 6.377 A 3.275 3.275 0 0 0 113.91 6.548 A 3.626 3.626 0 0 0 114.697 6.953 A 3.271 3.271 0 0 0 115.145 7.084 A 3.81 3.81 0 0 0 115.957 7.168 A 4.001 4.001 0 0 0 116.132 7.164 A 3.463 3.463 0 0 0 117.197 6.953 A 3.857 3.857 0 0 0 117.417 6.864 A 3.29 3.29 0 0 0 118.203 6.377 Q 118.633 6.016 118.877 5.527 A 2.325 2.325 0 0 0 119.121 4.473 Q 119.121 3.926 118.877 3.428 A 2.723 2.723 0 0 0 118.203 2.559 A 3.044 3.044 0 0 0 117.965 2.373 A 3.377 3.377 0 0 0 117.197 1.973 A 3.287 3.287 0 0 0 116.904 1.879 A 3.625 3.625 0 0 0 115.957 1.758 A 4.11 4.11 0 0 0 115.622 1.771 A 3.435 3.435 0 0 0 114.697 1.973 A 3.831 3.831 0 0 0 114.591 2.014 A 3.364 3.364 0 0 0 113.682 2.559 A 2.664 2.664 0 0 0 112.998 3.428 Z" id="6"/><path d="M 130.43 11.875 L 132.988 16.231 L 135.156 13.008 Q 135.43 12.578 135.615 12.139 A 8.918 8.918 0 0 0 135.861 11.491 A 7.87 7.87 0 0 0 135.928 11.279 A 16.746 16.746 0 0 0 136.045 10.874 A 13.072 13.072 0 0 0 136.143 10.498 A 14.725 14.725 0 0 1 136.207 10.242 Q 136.24 10.117 136.272 10.008 A 7.266 7.266 0 0 1 136.309 9.883 A 1.589 1.589 0 0 1 136.456 9.542 A 1.101 1.101 0 0 1 136.836 9.15 A 1.238 1.238 0 0 1 137.124 9.027 Q 137.416 8.94 137.844 8.928 A 5.041 5.041 0 0 1 137.988 8.926 A 2.2 2.2 0 0 1 138.386 8.96 A 1.666 1.666 0 0 1 138.779 9.082 A 0.68 0.68 0 0 1 138.958 9.197 Q 139.113 9.339 139.121 9.565 A 0.703 0.703 0 0 1 139.121 9.59 Q 139.121 10.145 138.746 10.952 A 6.875 6.875 0 0 1 138.731 10.986 Q 138.352 11.79 137.718 12.695 A 16.224 16.224 0 0 1 137.676 12.754 L 134.043 17.969 L 139.121 26.445 Q 139.262 26.7 139.388 26.882 A 2.944 2.944 0 0 0 139.483 27.012 A 2.379 2.379 0 0 0 139.606 27.159 Q 139.669 27.229 139.731 27.283 A 1.19 1.19 0 0 0 139.805 27.344 A 1.198 1.198 0 0 0 139.961 27.444 A 0.915 0.915 0 0 0 140.117 27.51 A 1.052 1.052 0 0 0 140.311 27.55 A 1.38 1.38 0 0 0 140.469 27.559 A 0.914 0.914 0 0 0 140.798 27.496 A 1.123 1.123 0 0 0 140.899 27.451 A 2.077 2.077 0 0 0 141.068 27.356 Q 141.216 27.263 141.387 27.129 L 141.797 27.598 A 22.295 22.295 0 0 1 140.859 28.33 A 5.967 5.967 0 0 1 139.959 28.877 A 6.744 6.744 0 0 1 139.775 28.965 A 6.967 6.967 0 0 1 138.901 29.295 A 8.288 8.288 0 0 1 138.467 29.414 A 5.915 5.915 0 0 1 137.612 29.556 A 7.769 7.769 0 0 1 136.875 29.59 A 4.872 4.872 0 0 1 136.056 29.524 Q 135.563 29.44 135.156 29.248 A 4.955 4.955 0 0 1 134.177 28.642 A 4.464 4.464 0 0 1 133.897 28.398 A 6.05 6.05 0 0 1 133.027 27.378 A 5.642 5.642 0 0 1 132.979 27.305 A 22.817 22.817 0 0 1 132.635 26.76 Q 132.476 26.5 132.342 26.262 A 13.736 13.736 0 0 1 132.324 26.231 L 129.473 21.484 L 126.836 25.43 Q 126.563 25.859 126.377 26.299 A 8.918 8.918 0 0 0 126.132 26.947 A 7.87 7.87 0 0 0 126.065 27.158 A 16.746 16.746 0 0 0 125.947 27.564 A 13.072 13.072 0 0 0 125.85 27.939 A 14.725 14.725 0 0 1 125.785 28.195 Q 125.752 28.321 125.721 28.43 A 7.266 7.266 0 0 1 125.684 28.555 A 1.589 1.589 0 0 1 125.536 28.896 A 1.101 1.101 0 0 1 125.156 29.287 A 1.238 1.238 0 0 1 124.869 29.41 Q 124.577 29.497 124.148 29.51 A 5.041 5.041 0 0 1 124.004 29.512 A 2.2 2.2 0 0 1 123.606 29.477 A 1.666 1.666 0 0 1 123.213 29.356 A 0.68 0.68 0 0 1 123.035 29.24 Q 122.879 29.098 122.872 28.872 A 0.703 0.703 0 0 1 122.871 28.848 Q 122.871 28.281 123.223 27.529 A 8.738 8.738 0 0 1 123.511 26.972 Q 123.67 26.687 123.872 26.365 A 21.926 21.926 0 0 1 124.317 25.684 L 128.477 19.766 L 123.789 11.875 Q 123.555 11.484 123.35 11.221 A 0.665 0.665 0 0 0 122.916 10.97 A 0.996 0.996 0 0 0 122.754 10.957 Q 122.434 10.957 121.983 11.292 A 3.755 3.755 0 0 0 121.836 11.406 L 121.445 10.918 A 13.158 13.158 0 0 1 122.163 10.367 A 15.12 15.12 0 0 1 122.422 10.186 A 7.161 7.161 0 0 1 123.565 9.551 A 7.568 7.568 0 0 1 124.537 9.199 A 8.821 8.821 0 0 1 124.902 9.102 A 6.274 6.274 0 0 1 126.041 8.937 A 7.329 7.329 0 0 1 126.445 8.926 Q 127.223 8.926 127.798 9.129 A 2.715 2.715 0 0 1 127.998 9.209 A 3.936 3.936 0 0 1 128.683 9.597 A 3.283 3.283 0 0 1 129.072 9.922 A 4.645 4.645 0 0 1 129.824 10.879 A 53.355 53.355 0 0 0 130.132 11.392 A 45.693 45.693 0 0 0 130.43 11.875 Z" id="7"/></g></svg>