<svg width="354.492" height="97.998" viewBox="0 0 354.492 97.998" xmlns="http://www.w3.org/2000/svg"><g id="svgGroup" stroke-linecap="round" fill-rule="evenodd" font-size="9pt" stroke="#000000" stroke-width="0.25mm" fill="#ffffff" style="stroke:#000000;stroke-width:0.25mm;fill:#ffffff"><path d="M 69.873 35.986 L 69.873 68.604 Q 69.873 69.077 69.765 69.7 A 11.208 11.208 0 0 1 69.678 70.142 A 3.266 3.266 0 0 1 69.214 71.233 A 4.411 4.411 0 0 1 68.726 71.851 A 4.246 4.246 0 0 1 67.99 72.465 Q 67.604 72.724 67.119 72.95 A 9.144 9.144 0 0 1 66.48 73.218 Q 64.99 73.779 62.403 73.779 Q 59.874 73.779 58.394 73.197 A 5.369 5.369 0 0 1 58.325 73.169 A 9.051 9.051 0 0 1 57.346 72.702 Q 56.555 72.26 56.055 71.729 A 4.676 4.676 0 0 1 55.519 71.049 Q 55.195 70.543 55.078 70.02 Q 54.892 69.181 54.883 68.653 A 3.084 3.084 0 0 1 54.883 68.604 L 54.883 30.908 A 5.125 5.125 0 0 0 54.723 29.603 A 4.15 4.15 0 0 0 54.224 28.442 A 2.141 2.141 0 0 0 52.855 27.486 Q 52.475 27.394 52.017 27.393 A 4.65 4.65 0 0 0 52.002 27.393 Q 51.172 27.393 50.586 27.686 A 5.97 5.97 0 0 0 50.055 27.989 Q 49.79 28.157 49.507 28.369 A 10.861 10.861 0 0 0 49.317 28.516 L 48.291 27.295 A 25.278 25.278 0 0 1 49.8 26.145 A 30.723 30.723 0 0 1 50.806 25.464 A 19.446 19.446 0 0 1 53.784 23.888 A 21.399 21.399 0 0 1 53.809 23.877 Q 55.42 23.193 57.276 22.754 A 16.656 16.656 0 0 1 60.656 22.322 A 18.796 18.796 0 0 1 61.182 22.315 Q 63.248 22.315 64.714 22.759 A 6.271 6.271 0 0 1 66.114 23.364 Q 67.871 24.414 68.701 25.879 A 7.877 7.877 0 0 1 69.678 28.733 A 7.601 7.601 0 0 1 69.702 28.931 A 36.68 36.68 0 0 1 69.805 30.027 Q 69.843 30.525 69.86 30.958 A 16.358 16.358 0 0 1 69.873 31.592 A 26.656 26.656 0 0 1 73.975 26.953 A 19.515 19.515 0 0 1 75.422 25.715 A 22.793 22.793 0 0 1 76.05 25.244 Q 77.198 24.414 78.491 23.755 A 14.184 14.184 0 0 1 81.226 22.705 Q 82.666 22.315 84.18 22.315 A 14.822 14.822 0 0 1 87.311 22.632 A 11.768 11.768 0 0 1 90.064 23.584 A 9.415 9.415 0 0 1 92.953 25.839 A 12.991 12.991 0 0 1 94.385 27.832 A 17.579 17.579 0 0 1 95.654 30.512 Q 96.512 32.766 97.071 35.718 A 46.717 46.717 0 0 1 97.636 39.731 Q 97.851 41.882 97.938 44.359 A 100.544 100.544 0 0 1 97.998 47.9 A 66.721 66.721 0 0 1 97.772 53.544 Q 97.463 57.185 96.729 60.205 Q 95.459 65.43 93.408 69.092 A 26.791 26.791 0 0 1 91.26 72.371 A 20.09 20.09 0 0 1 88.77 75.073 Q 86.182 77.393 83.545 78.711 A 24.274 24.274 0 0 1 80.963 79.828 A 18.584 18.584 0 0 1 78.491 80.542 Q 76.074 81.055 74.317 81.104 L 73.78 79.102 A 9.622 9.622 0 0 0 76.49 78.027 A 6.743 6.743 0 0 0 77.856 76.952 A 9.1 9.1 0 0 0 78.76 75.879 A 11.485 11.485 0 0 0 79.639 74.44 Q 80.014 73.719 80.348 72.87 A 20.75 20.75 0 0 0 80.567 72.29 A 23.13 23.13 0 0 0 81.122 70.506 Q 81.388 69.522 81.622 68.378 A 48.683 48.683 0 0 0 81.909 66.846 A 54.03 54.03 0 0 0 82.289 64.224 Q 82.466 62.771 82.598 61.135 A 100.142 100.142 0 0 0 82.74 59.107 A 134.046 134.046 0 0 0 82.903 55.546 Q 82.956 53.976 82.982 52.259 A 234.426 234.426 0 0 0 83.008 48.682 A 110.964 110.964 0 0 0 82.953 45.077 Q 82.841 41.623 82.497 39.185 A 31.337 31.337 0 0 0 82.447 38.843 A 35.84 35.84 0 0 0 82.07 36.76 Q 81.652 34.8 81.091 33.52 A 9.023 9.023 0 0 0 80.957 33.228 A 9.814 9.814 0 0 0 80.42 32.247 Q 79.777 31.228 79.052 30.773 A 2.707 2.707 0 0 0 78.906 30.689 A 5.023 5.023 0 0 0 77.493 30.166 A 4.471 4.471 0 0 0 76.612 30.078 A 4.501 4.501 0 0 0 74.947 30.381 A 4.224 4.224 0 0 0 74.097 30.835 A 9.261 9.261 0 0 0 72.193 32.568 A 15.11 15.11 0 0 0 71.24 33.85 A 12.693 12.693 0 0 0 70.825 34.522 A 22.372 22.372 0 0 1 70.555 34.979 Q 70.257 35.47 70.016 35.8 A 5.561 5.561 0 0 1 69.873 35.986 Z M 40.821 6.787 L 40.821 66.602 A 11.294 11.294 0 0 1 40.655 68.604 Q 40.458 69.694 40.027 70.542 A 4.98 4.98 0 0 1 38.843 72.07 A 6.146 6.146 0 0 1 36.827 73.2 Q 35.922 73.517 34.806 73.661 A 15.666 15.666 0 0 1 32.813 73.779 Q 30.351 73.779 28.664 73.164 A 5.958 5.958 0 0 1 26.758 72.07 A 5.214 5.214 0 0 1 25.293 69.849 Q 24.805 68.482 24.805 66.602 L 24.805 7.813 A 7.687 7.687 0 0 0 24.779 7.155 Q 24.752 6.843 24.697 6.58 A 3.054 3.054 0 0 0 24.561 6.104 A 2.794 2.794 0 0 0 24.294 5.575 A 2.121 2.121 0 0 0 23.877 5.103 A 2.272 2.272 0 0 0 22.996 4.654 A 2.73 2.73 0 0 0 22.827 4.614 A 6.163 6.163 0 0 0 22.102 4.516 A 7.88 7.88 0 0 0 21.485 4.492 A 8.715 8.715 0 0 0 20.627 4.538 Q 20.177 4.583 19.663 4.671 A 20.05 20.05 0 0 0 18.823 4.834 A 20.182 20.182 0 0 0 16.879 5.36 A 25.294 25.294 0 0 0 15.479 5.859 A 27.229 27.229 0 0 0 12.606 7.18 A 30.808 30.808 0 0 0 11.939 7.544 A 17.667 17.667 0 0 0 9.485 9.197 A 15.728 15.728 0 0 0 8.765 9.815 Q 7.373 11.084 6.494 12.647 A 6.76 6.76 0 0 0 5.615 16.016 Q 5.615 17.07 5.804 17.835 A 3.975 3.975 0 0 0 6.031 18.506 A 5.67 5.67 0 0 0 6.33 19.089 Q 6.504 19.38 6.695 19.605 A 2.667 2.667 0 0 0 6.983 19.898 A 3.067 3.067 0 0 0 7.449 20.233 A 2.189 2.189 0 0 0 8.081 20.483 A 10.128 10.128 0 0 0 8.342 20.537 Q 8.703 20.605 8.886 20.606 A 5.914 5.914 0 0 0 9.708 20.552 Q 10.388 20.456 10.889 20.191 Q 11.67 19.775 12.305 19.312 A 299.42 299.42 0 0 0 12.921 18.86 A 250.73 250.73 0 0 0 13.501 18.433 Q 14.063 18.018 14.795 18.018 A 2.911 2.911 0 0 1 15.478 18.103 A 3.938 3.938 0 0 1 16.04 18.286 A 3.333 3.333 0 0 1 16.9 18.806 A 4.153 4.153 0 0 1 17.261 19.141 A 4.072 4.072 0 0 1 17.78 19.818 Q 17.988 20.155 18.164 20.561 A 6.954 6.954 0 0 1 18.213 20.679 Q 18.604 21.631 18.604 22.998 A 8.484 8.484 0 0 1 18.459 24.604 A 6.208 6.208 0 0 1 17.847 26.367 Q 17.09 27.783 15.894 28.735 A 8.098 8.098 0 0 1 13.159 30.151 A 10.609 10.609 0 0 1 10.392 30.611 A 9.904 9.904 0 0 1 10.108 30.615 A 11.737 11.737 0 0 1 7.683 30.374 A 9.56 9.56 0 0 1 5.884 29.81 A 9.403 9.403 0 0 1 2.981 27.89 A 9.013 9.013 0 0 1 2.686 27.588 Q 1.367 26.172 0.684 24.268 A 11.847 11.847 0 0 1 0.002 20.416 A 13.398 13.398 0 0 1 0 20.215 A 16.191 16.191 0 0 1 0.501 16.129 A 14.176 14.176 0 0 1 1.221 14.038 Q 2.442 11.231 4.566 8.984 A 22.292 22.292 0 0 1 8.843 5.484 A 25.215 25.215 0 0 1 9.546 5.054 A 32.727 32.727 0 0 1 15.516 2.317 A 35.996 35.996 0 0 1 15.723 2.246 A 41.477 41.477 0 0 1 22.656 0.562 Q 26.27 0 29.883 0 Q 33.887 0 36.109 0.757 Q 37.555 1.25 38.504 1.877 A 5.309 5.309 0 0 1 39.38 2.588 Q 40.329 3.559 40.58 4.61 A 3.311 3.311 0 0 1 40.625 4.834 Q 40.756 5.621 40.8 6.232 A 7.925 7.925 0 0 1 40.821 6.787 Z M 326.074 29.688 L 332.471 40.576 L 337.891 32.52 A 14.878 14.878 0 0 0 338.919 30.621 A 13.558 13.558 0 0 0 339.038 30.347 A 22.295 22.295 0 0 0 339.652 28.726 A 19.673 19.673 0 0 0 339.82 28.198 A 41.864 41.864 0 0 0 340.113 27.185 A 32.68 32.68 0 0 0 340.357 26.245 A 36.812 36.812 0 0 1 340.518 25.605 Q 340.65 25.104 340.772 24.707 A 3.973 3.973 0 0 1 341.14 23.855 A 2.751 2.751 0 0 1 342.09 22.876 A 3.095 3.095 0 0 1 342.809 22.568 Q 343.539 22.35 344.611 22.32 A 12.603 12.603 0 0 1 344.971 22.315 A 5.5 5.5 0 0 1 345.965 22.4 A 4.166 4.166 0 0 1 346.948 22.705 Q 347.803 23.096 347.803 23.975 Q 347.803 25.391 346.826 27.466 A 24.754 24.754 0 0 1 345.7 29.574 Q 345.074 30.625 344.294 31.736 A 40.541 40.541 0 0 1 344.19 31.885 L 335.108 44.922 L 347.803 66.113 A 16.408 16.408 0 0 0 348.152 66.713 Q 348.444 67.19 348.706 67.529 A 5.947 5.947 0 0 0 349.014 67.898 Q 349.268 68.176 349.512 68.359 Q 349.903 68.652 350.293 68.775 A 2.63 2.63 0 0 0 350.778 68.875 A 3.449 3.449 0 0 0 351.172 68.897 A 2.286 2.286 0 0 0 351.995 68.739 A 2.807 2.807 0 0 0 352.246 68.628 A 5.193 5.193 0 0 0 352.67 68.389 Q 353.04 68.158 353.467 67.822 L 354.492 68.994 Q 353.369 69.922 352.149 70.825 A 14.918 14.918 0 0 1 349.898 72.193 A 16.862 16.862 0 0 1 349.439 72.412 A 17.418 17.418 0 0 1 347.253 73.237 A 20.72 20.72 0 0 1 346.167 73.535 A 14.787 14.787 0 0 1 344.031 73.891 A 19.423 19.423 0 0 1 342.188 73.975 A 12.181 12.181 0 0 1 340.14 73.811 Q 338.907 73.601 337.891 73.12 A 12.387 12.387 0 0 1 335.442 71.605 A 11.161 11.161 0 0 1 334.741 70.996 A 15.126 15.126 0 0 1 332.567 68.444 A 14.109 14.109 0 0 1 332.447 68.262 Q 331.494 66.797 330.811 65.576 L 323.682 53.711 L 317.09 63.574 A 14.878 14.878 0 0 0 316.062 65.473 A 13.558 13.558 0 0 0 315.943 65.747 A 22.295 22.295 0 0 0 315.329 67.368 A 19.673 19.673 0 0 0 315.161 67.896 A 41.864 41.864 0 0 0 314.868 68.909 A 32.68 32.68 0 0 0 314.624 69.849 A 36.812 36.812 0 0 1 314.463 70.488 Q 314.331 70.99 314.209 71.387 A 3.973 3.973 0 0 1 313.841 72.239 A 2.751 2.751 0 0 1 312.891 73.218 A 3.095 3.095 0 0 1 312.172 73.526 Q 311.442 73.744 310.37 73.774 A 12.603 12.603 0 0 1 310.01 73.779 A 5.5 5.5 0 0 1 309.016 73.694 A 4.166 4.166 0 0 1 308.032 73.389 Q 307.178 72.998 307.178 72.119 Q 307.178 71.047 307.682 69.709 A 12.478 12.478 0 0 1 308.057 68.823 Q 308.647 67.56 309.679 65.912 A 54.815 54.815 0 0 1 310.791 64.209 L 321.192 49.414 L 309.473 29.688 A 22.058 22.058 0 0 0 309.044 29 Q 308.695 28.464 308.374 28.052 A 1.662 1.662 0 0 0 307.29 27.424 A 2.491 2.491 0 0 0 306.885 27.393 A 2.026 2.026 0 0 0 306.229 27.514 Q 305.509 27.761 304.59 28.516 L 303.614 27.295 A 32.894 32.894 0 0 1 305.408 25.917 A 37.802 37.802 0 0 1 306.055 25.464 Q 307.373 24.561 308.911 23.877 A 18.919 18.919 0 0 1 311.342 22.997 A 22.052 22.052 0 0 1 312.256 22.754 A 15.686 15.686 0 0 1 315.103 22.342 A 18.322 18.322 0 0 1 316.114 22.315 A 12.382 12.382 0 0 1 317.83 22.427 Q 318.733 22.554 319.494 22.823 A 6.787 6.787 0 0 1 319.995 23.023 A 9.841 9.841 0 0 1 321.708 23.992 A 8.208 8.208 0 0 1 322.681 24.805 A 11.611 11.611 0 0 1 324.561 27.197 A 133.382 133.382 0 0 0 325.33 28.479 A 114.234 114.234 0 0 0 326.074 29.688 Z M 215.723 37.109 L 215.723 64.697 A 9.308 9.308 0 0 0 215.735 65.161 A 12.651 12.651 0 0 0 215.772 65.674 A 3.287 3.287 0 0 0 215.89 66.307 A 2.781 2.781 0 0 0 216.016 66.65 Q 216.211 67.09 216.602 67.383 Q 216.992 67.676 217.725 67.676 A 2.325 2.325 0 0 0 219.024 67.274 A 3.138 3.138 0 0 0 219.361 67.017 A 13.748 13.748 0 0 0 220.32 66.099 A 11.689 11.689 0 0 0 220.703 65.674 L 221.924 66.699 A 30.394 30.394 0 0 1 221.173 67.704 Q 220.711 68.297 220.166 68.945 A 13.249 13.249 0 0 1 218.631 70.484 A 16.201 16.201 0 0 1 217.676 71.24 A 13.081 13.081 0 0 1 215.654 72.45 A 16.2 16.2 0 0 1 214.258 73.047 A 11.283 11.283 0 0 1 211.785 73.654 A 14.865 14.865 0 0 1 209.815 73.779 A 8.757 8.757 0 0 1 204.346 71.948 Q 201.953 70.117 201.221 66.309 A 23.446 23.446 0 0 1 199.526 68.347 A 18.054 18.054 0 0 1 197.974 69.824 A 18.674 18.674 0 0 1 195.731 71.452 A 15.806 15.806 0 0 1 194.531 72.119 A 15.488 15.488 0 0 1 191.666 73.223 A 13.997 13.997 0 0 1 190.991 73.389 Q 189.209 73.779 187.403 73.779 A 14.266 14.266 0 0 1 182.862 73.047 A 10.84 10.84 0 0 1 178.931 70.728 A 10.477 10.477 0 0 1 176.97 68.269 A 13.535 13.535 0 0 1 176.148 66.602 A 12.871 12.871 0 0 1 175.403 64.022 Q 175.174 62.787 175.117 61.367 A 24.012 24.012 0 0 1 175.098 60.4 Q 175.098 56.836 176.229 54.308 A 9.941 9.941 0 0 1 176.856 53.125 A 15.68 15.68 0 0 1 181.47 48.364 A 29.408 29.408 0 0 1 185.767 45.978 A 35.419 35.419 0 0 1 187.964 45.068 A 425.181 425.181 0 0 0 195.41 42.188 Q 198.242 41.065 199.536 38.843 A 9.579 9.579 0 0 0 200.608 36.197 A 8.412 8.412 0 0 0 200.83 34.277 A 9.975 9.975 0 0 0 200.532 31.77 A 7.175 7.175 0 0 0 198.706 28.491 A 7.043 7.043 0 0 0 194.965 26.511 A 10.323 10.323 0 0 0 192.92 26.318 A 12.382 12.382 0 0 0 190.946 26.47 A 10.332 10.332 0 0 0 189.844 26.709 A 12.638 12.638 0 0 0 188.602 27.118 Q 187.988 27.358 187.471 27.647 A 7.749 7.749 0 0 0 187.403 27.686 Q 186.488 28.208 185.923 28.828 A 4.196 4.196 0 0 0 185.791 28.98 Q 185.397 29.456 185.268 29.899 A 1.51 1.51 0 0 0 185.205 30.322 A 1.087 1.087 0 0 0 185.324 30.838 Q 185.505 31.181 185.962 31.372 A 66.801 66.801 0 0 1 186.762 31.714 A 91.993 91.993 0 0 1 187.647 32.105 A 5.614 5.614 0 0 1 189.331 33.276 A 2.334 2.334 0 0 1 189.875 34.163 Q 190.088 34.766 190.088 35.596 A 4.408 4.408 0 0 1 189.892 36.925 A 4.012 4.012 0 0 1 189.673 37.476 Q 189.258 38.33 188.55 38.989 Q 187.842 39.649 186.89 40.015 A 5.462 5.462 0 0 1 184.912 40.381 A 6.544 6.544 0 0 1 182.828 40.063 A 5.441 5.441 0 0 1 180.493 38.525 A 6.308 6.308 0 0 1 179.012 35.585 A 9.227 9.227 0 0 1 178.809 33.594 A 9.496 9.496 0 0 1 179.152 30.989 A 7.757 7.757 0 0 1 180.371 28.491 A 11.971 11.971 0 0 1 183.76 25.4 A 14.146 14.146 0 0 1 184.448 25 A 19.44 19.44 0 0 1 188.218 23.455 A 23.672 23.672 0 0 1 190.137 22.974 A 31.14 31.14 0 0 1 196.485 22.315 A 31.551 31.551 0 0 1 202.833 22.939 A 28.896 28.896 0 0 1 203.76 23.145 A 19.548 19.548 0 0 1 207.871 24.609 A 16.885 16.885 0 0 1 209.888 25.781 A 13.653 13.653 0 0 1 214.136 30.371 Q 215.701 33.116 215.723 37.002 A 19.61 19.61 0 0 1 215.723 37.109 Z M 229.102 92.822 L 229.102 30.908 A 5.125 5.125 0 0 0 228.942 29.603 A 4.15 4.15 0 0 0 228.443 28.442 A 2.141 2.141 0 0 0 227.074 27.486 Q 226.694 27.394 226.236 27.393 A 4.65 4.65 0 0 0 226.221 27.393 Q 225.391 27.393 224.805 27.686 A 5.97 5.97 0 0 0 224.274 27.989 Q 224.008 28.157 223.726 28.369 A 10.861 10.861 0 0 0 223.535 28.516 L 222.51 27.295 A 25.278 25.278 0 0 1 224.019 26.145 A 30.723 30.723 0 0 1 225.025 25.464 A 19.446 19.446 0 0 1 228.002 23.888 A 21.399 21.399 0 0 1 228.028 23.877 Q 229.639 23.193 231.494 22.754 A 16.656 16.656 0 0 1 234.875 22.322 A 18.796 18.796 0 0 1 235.401 22.315 A 11.867 11.867 0 0 1 237.081 22.427 Q 237.999 22.559 238.774 22.843 A 6.834 6.834 0 0 1 239.16 22.998 A 11.027 11.027 0 0 1 240.595 23.749 A 8.32 8.32 0 0 1 241.773 24.634 Q 242.823 25.586 243.36 26.636 Q 243.896 27.684 243.994 28.416 A 2.832 2.832 0 0 1 243.994 28.418 A 13.383 13.383 0 0 1 246.314 25.928 Q 247.656 24.805 249.243 23.999 Q 250.83 23.193 252.613 22.754 A 15.343 15.343 0 0 1 256.299 22.315 A 16.348 16.348 0 0 1 260.842 22.928 A 14.38 14.38 0 0 1 263.379 23.926 A 14.66 14.66 0 0 1 268.016 27.666 A 17.672 17.672 0 0 1 268.823 28.711 Q 271.061 31.838 272.279 36.435 A 33.406 33.406 0 0 1 272.315 36.572 Q 273.535 41.26 273.535 47.412 A 57.568 57.568 0 0 1 273.326 52.46 Q 273.097 55.057 272.617 57.297 A 29.654 29.654 0 0 1 272.046 59.546 A 32.467 32.467 0 0 1 270.683 63.31 Q 269.575 65.84 268.14 67.725 A 16.923 16.923 0 0 1 265.595 70.429 A 13.3 13.3 0 0 1 262.622 72.339 A 15.099 15.099 0 0 1 257.503 73.729 A 14.311 14.311 0 0 1 256.299 73.779 A 22.827 22.827 0 0 1 254.075 73.677 Q 252.98 73.569 252.022 73.35 A 13.267 13.267 0 0 1 251.587 73.242 A 19.88 19.88 0 0 1 249.922 72.726 Q 248.92 72.363 248.096 71.924 Q 246.839 71.253 245.941 70.565 A 10.333 10.333 0 0 1 245.655 70.337 Q 244.781 69.616 244.22 69.111 A 20.996 20.996 0 0 1 244.092 68.994 L 244.092 92.822 Q 244.092 93.307 243.978 93.933 A 10.52 10.52 0 0 1 243.897 94.336 A 3.188 3.188 0 0 1 243.475 95.341 A 4.452 4.452 0 0 1 242.945 96.021 Q 242.188 96.826 240.698 97.412 A 7.03 7.03 0 0 1 239.545 97.746 Q 238.32 97.998 236.621 97.998 Q 234.093 97.998 232.613 97.415 A 5.369 5.369 0 0 1 232.544 97.388 A 8.635 8.635 0 0 1 231.546 96.907 Q 230.768 96.464 230.274 95.923 A 5.129 5.129 0 0 1 229.77 95.282 Q 229.419 94.748 229.297 94.214 Q 229.111 93.398 229.102 92.872 A 3.075 3.075 0 0 1 229.102 92.822 Z M 168.408 26.514 L 160.84 26.514 L 160.84 62.598 Q 160.84 65.186 161.817 66.187 A 3.225 3.225 0 0 0 163.483 67.085 A 4.795 4.795 0 0 0 164.502 67.188 Q 165.821 67.188 166.846 66.455 A 8.661 8.661 0 0 0 168.41 65.031 A 8.003 8.003 0 0 0 168.604 64.795 A 9.868 9.868 0 0 0 169.741 63.144 A 11.754 11.754 0 0 0 170.117 62.402 L 171.631 63.086 A 58.835 58.835 0 0 1 170.832 64.722 A 79.411 79.411 0 0 1 169.898 66.504 A 13.537 13.537 0 0 1 167.836 69.342 A 15.686 15.686 0 0 1 167.237 69.946 A 12.434 12.434 0 0 1 164.964 71.65 A 16.324 16.324 0 0 1 163.062 72.608 A 12.155 12.155 0 0 1 160.662 73.332 Q 159.485 73.567 158.119 73.644 A 24.538 24.538 0 0 1 156.739 73.682 Q 154.59 73.682 152.613 73.047 A 9.69 9.69 0 0 1 149.097 71.045 A 9.781 9.781 0 0 1 146.968 68.312 A 11.608 11.608 0 0 1 146.631 67.627 Q 145.776 65.736 145.709 63.14 A 17.299 17.299 0 0 1 145.703 62.695 L 145.703 26.514 L 140.235 26.514 L 140.235 22.998 A 7.389 7.389 0 0 0 141.141 22.936 Q 142.107 22.815 143.424 22.463 A 30.824 30.824 0 0 0 144.043 22.29 Q 146.485 21.582 149.048 19.922 Q 151.612 18.262 153.809 15.479 Q 156.006 12.695 156.934 8.594 L 160.84 8.594 L 160.84 22.998 L 168.799 22.998 A 17.672 17.672 0 0 0 170.026 22.959 Q 172.705 22.772 172.705 21.68 A 0.742 0.742 0 0 0 172.655 21.4 Q 172.577 21.207 172.377 21.093 A 0.97 0.97 0 0 0 172.217 21.021 A 12.376 12.376 0 0 1 171.766 20.852 Q 171.538 20.762 171.288 20.655 A 21.068 21.068 0 0 1 171.118 20.581 A 3.588 3.588 0 0 1 170.02 19.824 A 1.43 1.43 0 0 1 169.704 19.323 Q 169.542 18.907 169.532 18.295 A 5.006 5.006 0 0 1 169.531 18.213 A 3.528 3.528 0 0 1 169.642 17.306 A 2.521 2.521 0 0 1 170.386 16.065 A 2.929 2.929 0 0 1 171.879 15.345 A 4.117 4.117 0 0 1 172.608 15.283 A 3.568 3.568 0 0 1 173.408 15.369 A 2.803 2.803 0 0 1 174.146 15.65 A 3.33 3.33 0 0 1 175.244 16.626 A 4.325 4.325 0 0 1 175.843 17.819 A 4.987 4.987 0 0 1 175.904 18.018 Q 176.123 18.799 176.123 19.58 A 8.907 8.907 0 0 1 175.876 21.736 A 6.223 6.223 0 0 1 174.292 24.634 Q 172.92 26.043 170.299 26.396 A 14.198 14.198 0 0 1 168.408 26.514 Z M 102.979 64.697 L 104.688 63.477 A 12.923 12.923 0 0 0 105.296 64.129 Q 105.742 64.576 106.299 65.064 A 15.538 15.538 0 0 0 108.031 66.372 A 17.546 17.546 0 0 0 108.472 66.65 A 12.716 12.716 0 0 0 111.035 67.847 Q 112.403 68.311 113.819 68.311 A 12.03 12.03 0 0 0 116.324 68.064 Q 118.011 67.705 119.305 66.823 A 7.482 7.482 0 0 0 119.58 66.626 A 5.449 5.449 0 0 0 121.703 63.088 A 8.31 8.31 0 0 0 121.826 61.621 A 6.3 6.3 0 0 0 121.44 59.495 Q 121.159 58.706 120.672 57.896 A 10.94 10.94 0 0 0 120.606 57.788 A 26.372 26.372 0 0 0 119.13 55.653 A 34.936 34.936 0 0 0 117.53 53.711 Q 115.674 51.611 113.526 49.365 A 59.17 59.17 0 0 1 109.522 44.727 A 28.043 28.043 0 0 1 106.926 40.742 A 25.354 25.354 0 0 1 106.446 39.795 A 12.032 12.032 0 0 1 105.225 34.522 A 12.865 12.865 0 0 1 105.498 31.809 A 9.924 9.924 0 0 1 106.47 29.15 A 11.349 11.349 0 0 1 109.79 25.342 A 14.628 14.628 0 0 1 113.87 23.272 A 16.833 16.833 0 0 1 114.527 23.071 Q 117.188 22.315 120.02 22.315 A 31.684 31.684 0 0 1 123.33 22.48 A 24.373 24.373 0 0 1 125.977 22.9 A 17.04 17.04 0 0 1 128.401 23.611 A 12.716 12.716 0 0 1 130.591 24.683 Q 132.52 25.879 133.57 27.686 A 7.729 7.729 0 0 1 134.536 30.585 A 9.886 9.886 0 0 1 134.619 31.885 A 4.681 4.681 0 0 1 133.399 35.108 A 3.984 3.984 0 0 1 131.139 36.367 A 5.905 5.905 0 0 1 129.981 36.475 A 7.811 7.811 0 0 1 128.773 36.388 Q 127.54 36.194 126.782 35.571 A 2.949 2.949 0 0 1 125.697 33.439 A 4.155 4.155 0 0 1 125.684 33.106 A 3.307 3.307 0 0 1 125.744 32.453 Q 125.86 31.879 126.197 31.494 A 4.578 4.578 0 0 1 127.187 30.637 A 4.282 4.282 0 0 1 127.344 30.542 A 39.091 39.091 0 0 1 127.912 30.22 Q 128.181 30.071 128.423 29.943 A 23.076 23.076 0 0 1 128.491 29.907 Q 128.809 29.741 128.93 29.509 A 0.66 0.66 0 0 0 129.004 29.199 A 2.206 2.206 0 0 0 128.18 27.464 A 3.741 3.741 0 0 0 127.539 27.026 A 5.983 5.983 0 0 0 126.041 26.462 Q 125.349 26.296 124.54 26.244 A 11.916 11.916 0 0 0 123.78 26.221 A 7.695 7.695 0 0 0 122.067 26.407 A 6.978 6.978 0 0 0 121.656 26.514 Q 120.655 26.807 119.873 27.466 A 4.459 4.459 0 0 0 118.723 28.972 A 5.21 5.21 0 0 0 118.653 29.126 Q 118.226 30.098 118.214 31.414 A 8.407 8.407 0 0 0 118.213 31.494 Q 118.213 33.399 119.605 35.278 Q 120.996 37.158 123.072 39.185 A 140.187 140.187 0 0 0 125.799 41.775 A 166.127 166.127 0 0 0 127.564 43.384 Q 129.981 45.557 132.056 47.974 Q 134.131 50.391 135.523 53.125 A 12.737 12.737 0 0 1 136.914 58.984 A 17.648 17.648 0 0 1 136.615 62.305 A 13.718 13.718 0 0 1 135.718 65.234 Q 134.522 67.969 132.3 69.873 A 14.443 14.443 0 0 1 128.627 72.144 A 17.75 17.75 0 0 1 126.929 72.778 A 21.097 21.097 0 0 1 122.772 73.633 A 26.823 26.823 0 0 1 119.922 73.779 A 20.656 20.656 0 0 1 116.522 73.511 A 16.423 16.423 0 0 1 113.819 72.827 A 23.945 23.945 0 0 1 110.787 71.542 A 19.683 19.683 0 0 1 108.96 70.483 Q 106.836 69.092 105.323 67.529 A 27.463 27.463 0 0 1 104.283 66.399 Q 103.798 65.838 103.415 65.322 A 12.906 12.906 0 0 1 102.979 64.697 Z M 298.389 30.42 L 298.389 68.604 Q 298.389 69.077 298.267 69.7 A 10.11 10.11 0 0 1 298.169 70.142 Q 297.949 71.045 297.144 71.851 A 4.706 4.706 0 0 1 296.338 72.487 Q 295.939 72.741 295.448 72.963 A 9.756 9.756 0 0 1 294.824 73.218 A 7.512 7.512 0 0 1 293.657 73.538 Q 292.431 73.778 290.749 73.779 A 23.714 23.714 0 0 1 290.723 73.779 Q 288.194 73.779 286.738 73.197 A 5.149 5.149 0 0 1 286.67 73.169 A 8.561 8.561 0 0 1 285.75 72.723 Q 284.954 72.273 284.473 71.729 A 4.499 4.499 0 0 1 283.955 71.02 Q 283.669 70.529 283.57 70.022 A 2.604 2.604 0 0 1 283.57 70.02 A 12.809 12.809 0 0 1 283.479 69.504 Q 283.399 68.973 283.399 68.604 L 283.399 30.908 A 5.125 5.125 0 0 0 283.239 29.603 A 4.15 4.15 0 0 0 282.74 28.442 A 2.141 2.141 0 0 0 281.371 27.486 Q 280.991 27.394 280.532 27.393 A 4.65 4.65 0 0 0 280.518 27.393 Q 279.688 27.393 279.102 27.686 A 5.97 5.97 0 0 0 278.57 27.989 Q 278.305 28.157 278.023 28.369 A 10.861 10.861 0 0 0 277.832 28.516 L 276.807 27.295 A 25.278 25.278 0 0 1 278.316 26.145 A 30.723 30.723 0 0 1 279.322 25.464 A 19.446 19.446 0 0 1 282.299 23.888 A 21.399 21.399 0 0 1 282.324 23.877 Q 283.936 23.193 285.791 22.754 A 16.656 16.656 0 0 1 289.172 22.322 A 18.796 18.796 0 0 1 289.698 22.315 A 19.026 19.026 0 0 1 291.543 22.398 Q 293.389 22.579 294.589 23.15 A 5.554 5.554 0 0 1 294.629 23.169 Q 296.387 24.024 297.217 25.269 Q 298.047 26.514 298.218 27.93 A 27.332 27.332 0 0 1 298.322 28.944 Q 298.389 29.749 298.389 30.42 Z M 244.092 34.815 L 244.092 62.012 A 1.495 1.495 0 0 0 244.113 62.24 Q 244.17 62.604 244.386 63.24 A 15.448 15.448 0 0 0 244.434 63.379 A 7.015 7.015 0 0 0 244.907 64.43 A 9.465 9.465 0 0 0 245.508 65.381 A 7.441 7.441 0 0 0 246.84 66.795 A 8.894 8.894 0 0 0 247.388 67.212 Q 248.535 68.018 250.196 68.018 A 4.778 4.778 0 0 0 253.714 66.532 A 6.151 6.151 0 0 0 253.858 66.382 Q 255.169 64.965 256.077 62.669 A 18.6 18.6 0 0 0 256.348 61.939 Q 257.262 59.312 257.705 55.873 A 43.117 43.117 0 0 0 257.764 55.396 A 63.907 63.907 0 0 0 258.142 50.526 A 76.722 76.722 0 0 0 258.203 47.412 Q 258.203 43.425 257.876 40.376 A 38.469 38.469 0 0 0 257.642 38.574 A 30.785 30.785 0 0 0 257.195 36.255 Q 256.711 34.197 256.006 32.739 Q 255.179 31.029 254.106 30.042 A 5.574 5.574 0 0 0 253.443 29.517 Q 251.953 28.516 250.098 28.516 A 4.045 4.045 0 0 0 248.587 28.817 A 5.189 5.189 0 0 0 247.949 29.126 A 8.255 8.255 0 0 0 246.021 30.64 A 7.875 7.875 0 0 0 244.629 32.666 A 5.908 5.908 0 0 0 244.248 33.681 A 4.362 4.362 0 0 0 244.092 34.815 Z M 200.684 59.619 L 200.684 47.705 A 3.033 3.033 0 0 0 200.596 46.951 A 2.026 2.026 0 0 0 199.903 45.85 A 2.769 2.769 0 0 0 198.692 45.291 A 3.932 3.932 0 0 0 197.901 45.215 Q 196.192 45.215 194.654 45.996 A 7.732 7.732 0 0 0 192.474 47.664 A 9.369 9.369 0 0 0 191.944 48.291 A 10.238 10.238 0 0 0 190.78 50.218 A 13.821 13.821 0 0 0 190.088 52.026 A 14.752 14.752 0 0 0 189.575 54.425 Q 189.426 55.552 189.407 56.814 A 24.548 24.548 0 0 0 189.405 57.178 A 31.912 31.912 0 0 0 189.458 59.087 Q 189.554 60.677 189.82 61.865 Q 190.235 63.721 190.943 64.819 A 5.219 5.219 0 0 0 191.529 65.577 Q 191.93 66.002 192.386 66.258 A 3.101 3.101 0 0 0 192.578 66.358 A 4.508 4.508 0 0 0 194.531 66.797 A 4.65 4.65 0 0 0 196.924 66.138 A 7.156 7.156 0 0 0 198.877 64.453 A 8.431 8.431 0 0 0 200.196 62.158 A 7.187 7.187 0 0 0 200.66 60.175 A 6.622 6.622 0 0 0 200.684 59.619 Z M 282.495 8.569 A 5.862 5.862 0 0 0 281.885 11.182 A 5.814 5.814 0 0 0 282.495 13.818 A 6.485 6.485 0 0 0 284.204 15.942 A 8.187 8.187 0 0 0 284.775 16.371 A 9.065 9.065 0 0 0 286.743 17.383 A 8.177 8.177 0 0 0 287.861 17.71 A 9.524 9.524 0 0 0 289.893 17.92 A 10.003 10.003 0 0 0 290.33 17.911 A 8.658 8.658 0 0 0 292.993 17.383 A 9.643 9.643 0 0 0 293.542 17.159 A 8.226 8.226 0 0 0 295.508 15.942 A 6.624 6.624 0 0 0 297.193 13.818 A 5.814 5.814 0 0 0 297.803 11.182 A 5.862 5.862 0 0 0 297.193 8.569 A 6.806 6.806 0 0 0 295.508 6.397 A 7.611 7.611 0 0 0 294.912 5.931 A 8.444 8.444 0 0 0 292.993 4.932 Q 291.553 4.395 289.893 4.395 A 10.275 10.275 0 0 0 289.055 4.428 A 8.588 8.588 0 0 0 286.743 4.932 A 9.578 9.578 0 0 0 286.476 5.036 A 8.411 8.411 0 0 0 284.204 6.397 A 6.66 6.66 0 0 0 282.495 8.569 Z" vector-effect="non-scaling-stroke"/></g></svg>